<svg xmlns="http://www.w3.org/2000/svg" viewBox="0 0 252.43 48.94"><defs><style>.cls-1{fill:#fff;}</style></defs><title>logo</title><g id="Layer_2" data-name="Layer 2"><g id="Layer_1-2" data-name="Layer 1"><path class="cls-1" d="M56.49,13.25,44.75,48H33.36L28.21,31,23.06,48H11.67L0,13.25H14.28l4.32,16.4,4.94-16.4h9.4l4.88,16.4,4.32-16.4Z"/><path class="cls-1" d="M90.32,26.42V48H76.73V44.75c-1.85,2.75-6,4.19-9.06,4.19-3.7,0-11.87-1.38-11.87-10.23C55.8,27,71,27,73.09,27h3.64c0-3-1.85-4.39-4.46-4.39A10.74,10.74,0,0,0,66,24.57L57.93,19c3.56-3.91,9.19-6.59,16.12-6.59C85.17,12.42,90.32,18.12,90.32,26.42ZM76.73,36.92V33.15h-.27c-5.49,0-7,1.51-7,3.5,0,1,.61,2.27,2.81,2.27A6.17,6.17,0,0,0,76.73,36.92Z"/><path class="cls-1" d="M132.39,26.29V48H118.8V30.54c0-2.74-1.3-4.8-4.39-4.8s-4.32,2.06-4.32,4.8V48H96.5V13.25h13.59v3.57a11.84,11.84,0,0,1,9.54-4.4C130.06,12.42,132.39,21.21,132.39,26.29Z"/><path class="cls-1" d="M175.56,0V48H162V45.37a12.27,12.27,0,0,1-9,3.57c-10.91,0-16.13-9.06-16.13-18.26S142.07,12.42,153,12.42a12.67,12.67,0,0,1,9,3.37V0ZM161.63,30.68a5.6,5.6,0,1,0-11.19,0,5.6,5.6,0,1,0,11.19,0Z"/><path class="cls-1" d="M205.76,12.42V26.84c-10.3-1.72-10.43,4.32-10.43,8.71V48H181.74V13.25h13.59v5.49A12.33,12.33,0,0,1,205.76,12.42Z"/><path class="cls-1" d="M234.24,12.42V26.84c-10.29-1.72-10.43,4.32-10.43,8.71V48H210.22V13.25h13.59v5.49A12.33,12.33,0,0,1,234.24,12.42Z"/><path class="cls-1" d="M252.43,41.52A7.38,7.38,0,1,1,245,34.18,7.39,7.39,0,0,1,252.43,41.52Z"/></g></g></svg>