<svg xmlns="http://www.w3.org/2000/svg" viewBox="0 0 276.1 53.75"><defs><style>.cls-1{fill:#fff;}</style></defs><title>logo</title><g id="Layer_2" data-name="Layer 2"><g id="Layer_1-2" data-name="Layer 1"><path class="cls-1" d="M23.07,52.77,14.92,37.24V52.77H0V0H14.92V28.57l7.84-14H39.12l-11,17.94,12,20.28Z"/><path class="cls-1" d="M82.08,14.55V52.77H67.16V48.92a13,13,0,0,1-10.4,4.83c-11.54,0-14-9.65-14-15.23v-24H57.66v19.3c0,3,1.36,5.2,4.75,5.2s4.75-2.19,4.75-5.2V14.55Z"/><path class="cls-1" d="M103.79,0V52.77H88.87V0Z"/><path class="cls-1" d="M128.36,27.36v8.07c0,2.41,1.28,4.22,4.6,4.22a12.81,12.81,0,0,0,2.94-.38v13.5a23.35,23.35,0,0,1-6.63.75c-12.74,0-15.83-9.35-15.83-16.81V27.36h-4.75V14.55h4.75v-8h14.92v8h7.54V27.36Z"/><path class="cls-1" d="M181.65,14.55V52.77H166.73V48.92a13,13,0,0,1-10.4,4.83c-11.54,0-14-9.65-14-15.23v-24h14.92v19.3c0,3,1.36,5.2,4.75,5.2s4.75-2.19,4.75-5.2V14.55Z"/><path class="cls-1" d="M214.82,13.64V29.47c-11.31-1.88-11.46,4.75-11.46,9.58V52.77H188.43V14.55h14.93v6A13.55,13.55,0,0,1,214.82,13.64Z"/><path class="cls-1" d="M254.24,29V52.77H239.31V49.15c-2,3-6.63,4.6-9.95,4.6-4.07,0-13-1.51-13-11.24,0-12.81,16.74-12.81,19-12.81h4c0-3.32-2-4.82-4.9-4.82A11.77,11.77,0,0,0,227.55,27l-8.89-6.11c3.92-4.3,10.1-7.24,17.71-7.24C248.58,13.64,254.24,19.9,254.24,29ZM239.31,40.55V36.41H239c-6,0-7.69,1.66-7.69,3.84,0,1.13.68,2.49,3.09,2.49A6.79,6.79,0,0,0,239.31,40.55Z"/><path class="cls-1" d="M276.1,45.6A8.11,8.11,0,1,1,268,37.54,8.11,8.11,0,0,1,276.1,45.6Z"/></g></g></svg>